<svg xmlns="http://www.w3.org/2000/svg" width="300" height="400" viewBox="0 0 300 400"><rect width="100%" height="100%" fill="#f4f4f4"/><path fill="#000000" d="M70.865 204.925q.28 0 .49.21l1.32 1.44q-1.1 1.36-2.7 2.08-1.61.73-3.86.73-2.01 0-3.62-.69-1.6-.69-2.74-1.91-1.14-1.23-1.75-2.93-.6-1.7-.6-3.71 0-2.04.65-3.73t1.83-2.92q1.18-1.22 2.82-1.9 1.64-.69 3.62-.69t3.51.65 2.61 1.7l-1.13 1.57q-.1.15-.26.26-.15.11-.43.11-.18 0-.38-.1-.2-.11-.44-.27-.24-.15-.55-.34t-.73-.34q-.41-.16-.95-.27-.55-.1-1.26-.1-1.21 0-2.22.43-1 .43-1.73 1.25-.72.82-1.12 2t-.4 2.69q0 1.53.43 2.71.43 1.19 1.17 2 .73.82 1.73 1.25t2.15.43q.69 0 1.25-.08.55-.07 1.02-.23.47-.17.89-.42.42-.26.83-.63.13-.12.26-.18.14-.07.29-.07m9.31-8.77q1.43 0 2.6.47 1.17.46 2 1.31t1.28 2.07q.45 1.23.45 2.74 0 1.53-.45 2.75-.45 1.23-1.28 2.09t-2 1.32q-1.17.47-2.6.47t-2.61-.47q-1.17-.46-2.01-1.32-.83-.86-1.28-2.09-.46-1.22-.46-2.75 0-1.51.46-2.74.45-1.22 1.28-2.07.84-.85 2.01-1.31 1.18-.47 2.61-.47m0 10.84q1.6 0 2.37-1.07.77-1.08.77-3.15 0-2.08-.77-3.17-.77-1.08-2.37-1.08-1.62 0-2.4 1.09-.78 1.1-.78 3.16t.78 3.14 2.4 1.08m17.82-10.64h2.43l-5.08 12.83h-2.8l-5.09-12.83h2.55q.35 0 .58.17.23.16.31.41l2.47 6.85q.2.6.35 1.17.15.58.26 1.15.13-.57.28-1.15.15-.57.36-1.17l2.53-6.85q.08-.25.31-.41.22-.17.54-.17m6.51 4.94h5.82q0-.6-.17-1.13-.16-.53-.5-.93t-.86-.63-1.2-.23q-1.34 0-2.11.76t-.98 2.16m7.87 1.86h-7.93q.07.99.35 1.71.27.72.72 1.19t1.07.7 1.37.23 1.29-.18q.55-.17.95-.38.41-.22.71-.39.31-.18.6-.18.39 0 .57.29l.89 1.13q-.51.6-1.15 1-.64.41-1.33.65-.69.25-1.41.35t-1.4.1q-1.33 0-2.48-.45-1.15-.44-2-1.31t-1.34-2.15-.49-2.97q0-1.31.43-2.47.42-1.15 1.21-2.01.8-.86 1.94-1.36 1.15-.5 2.58-.5 1.22 0 2.24.39 1.03.39 1.76 1.13.74.75 1.16 1.83t.42 2.47q0 .7-.15.94t-.58.24m5.77-6.02.18 1.45q.6-1.15 1.43-1.81.82-.65 1.95-.65.89 0 1.42.38l-.2 2.32q-.06.22-.18.32-.12.09-.32.09-.18 0-.55-.06-.37-.07-.72-.07-.51 0-.91.15t-.72.44q-.32.28-.57.68-.24.4-.45.91v7.9h-3.09v-12.83h1.81q.48 0 .67.17.18.17.25.61m25.61-6.02v1.23q0 .58-.33 1.05l-9.27 13.1h9.39v2.69h-13.75v-1.33q0-.25.08-.48.09-.23.23-.43l9.3-13.16h-9.03v-2.67zm2.3 5.24h3.1v12.83h-3.1zm3.52-3.73q0 .4-.16.75t-.43.61-.63.42q-.36.15-.78.15-.4 0-.75-.15-.36-.16-.62-.42t-.42-.61-.16-.75q0-.42.16-.78t.42-.62q.26-.27.62-.42.35-.16.75-.16.42 0 .78.16.36.15.63.42.27.26.43.62t.16.78m5.4 4.3.22 1.01q.38-.39.81-.72.44-.33.92-.56t1.03-.36q.55-.14 1.2-.14 1.05 0 1.86.36t1.36 1q.54.64.82 1.54.28.89.28 1.97v8.16h-3.08v-8.16q0-1.18-.54-1.82-.54-.65-1.64-.65-.8 0-1.5.37-.7.36-1.32.98v9.28h-3.09v-12.83h1.89q.6 0 .78.57m13.87 4.37h5.82q0-.6-.17-1.13t-.5-.93q-.34-.4-.86-.63t-1.21-.23q-1.33 0-2.1.76t-.98 2.16m7.87 1.86h-7.94q.08.99.35 1.71.28.72.73 1.19t1.07.7 1.37.23 1.29-.18q.54-.17.95-.38.41-.22.71-.39.31-.18.6-.18.38 0 .57.29l.89 1.13q-.51.6-1.15 1-.64.41-1.33.65-.7.25-1.42.35-.71.1-1.39.1-1.34 0-2.49-.45-1.15-.44-2-1.31t-1.33-2.15q-.49-1.28-.49-2.97 0-1.31.42-2.47.43-1.15 1.22-2.01.8-.86 1.94-1.36t2.58-.5q1.21 0 2.24.39 1.02.39 1.76 1.13.74.75 1.16 1.83t.42 2.47q0 .7-.15.94t-.58.24m22.01 1.77q.28 0 .49.21l1.33 1.44q-1.1 1.36-2.71 2.08-1.61.73-3.86.73-2.01 0-3.62-.69-1.6-.69-2.74-1.91-1.14-1.23-1.74-2.93-.61-1.7-.61-3.71 0-2.04.65-3.73t1.83-2.92q1.18-1.22 2.82-1.9 1.64-.69 3.63-.69 1.97 0 3.5.65t2.61 1.7l-1.13 1.57q-.1.15-.25.26-.16.11-.43.11-.19 0-.39-.1-.2-.11-.44-.27-.24-.15-.55-.34t-.72-.34q-.42-.16-.96-.27-.54-.1-1.26-.1-1.21 0-2.22.43-1 .43-1.73 1.25-.72.82-1.12 2t-.4 2.69q0 1.53.43 2.71.43 1.19 1.17 2 .74.82 1.74 1.25t2.15.43q.68 0 1.24-.08.56-.07 1.02-.23.47-.17.89-.42.42-.26.83-.63.13-.12.27-.18.13-.07.28-.07m3.68-14.31h3.09v18.57h-3.09zm12.95 15.26v-2.17q-1.34.07-2.25.24-.91.16-1.46.43-.55.26-.79.61t-.24.76q0 .81.48 1.17.48.34 1.26.34.95 0 1.64-.34.7-.34 1.36-1.04m-6.53-6.74-.55-.99q2.22-2.02 5.33-2.02 1.12 0 2.01.37.89.36 1.5 1.02t.93 1.57.32 2v8.1h-1.4q-.44 0-.67-.13-.24-.13-.38-.53l-.27-.93q-.49.44-.95.77-.47.33-.97.56-.5.22-1.06.34-.57.12-1.26.12-.81 0-1.5-.22t-1.19-.66q-.5-.43-.77-1.08-.28-.65-.28-1.52 0-.48.16-.96.17-.49.53-.92.37-.44.96-.83t1.44-.67q.86-.29 2-.47t2.6-.22v-.75q0-1.29-.55-1.91t-1.59-.62q-.75 0-1.24.18-.5.17-.87.39-.38.22-.68.4-.31.17-.68.17-.33 0-.55-.17-.23-.17-.37-.39m15.17-2 .18 1.45q.6-1.15 1.43-1.81.82-.65 1.95-.65.89 0 1.42.38l-.2 2.32q-.06.22-.18.32-.12.09-.32.09-.18 0-.55-.06-.37-.07-.72-.07-.51 0-.91.15t-.72.44q-.32.28-.56.68-.25.4-.46.91v7.9h-3.09v-12.83h1.81q.48 0 .67.17.18.17.25.61m12.27-.98q1.43 0 2.6.47 1.16.46 2 1.31.83.85 1.28 2.07.45 1.23.45 2.74 0 1.53-.45 2.75-.45 1.23-1.28 2.09-.84.86-2 1.32-1.17.47-2.6.47-1.44 0-2.61-.47-1.18-.46-2.01-1.32t-1.28-2.09q-.46-1.22-.46-2.75 0-1.51.46-2.74.45-1.22 1.28-2.07t2.01-1.31q1.17-.47 2.61-.47m0 10.84q1.6 0 2.37-1.07.77-1.08.77-3.15 0-2.08-.77-3.17-.77-1.08-2.37-1.08-1.62 0-2.4 1.09-.79 1.1-.79 3.16t.79 3.14q.78 1.08 2.4 1.08"/></svg>