<svg xmlns="http://www.w3.org/2000/svg" width="300" height="400" viewBox="0 0 300 400"><rect width="100%" height="100%" fill="#f4f4f4"/><path fill="#000000" d="M66.11 202.805h7.59l-2.9-7.94q-.22-.52-.45-1.25t-.46-1.57q-.21.84-.44 1.58-.24.73-.45 1.28zm6.06-14.85 9.37 23.86h-3.43q-.58 0-.94-.29-.37-.29-.55-.72l-1.78-4.86h-9.88l-1.78 4.86q-.14.38-.52.7-.38.31-.94.31h-3.46l9.39-23.86zm16.84 24.12q-2.21 0-3.39-1.24-1.18-1.25-1.18-3.44v-9.46h-1.73q-.33 0-.56-.21-.23-.22-.23-.64v-1.62l2.72-.45.86-4.62q.08-.33.31-.51t.6-.18h2.11v5.33h4.52v2.9h-4.52v9.18q0 .79.39 1.23.38.45 1.06.45.38 0 .64-.09.25-.09.44-.19t.34-.19.3-.09q.18 0 .29.09.12.09.25.27l1.22 1.98q-.89.75-2.04 1.12-1.16.38-2.4.38m14.13-17.45q1.88 0 3.42.61t2.64 1.73 1.69 2.74q.6 1.62.6 3.61 0 2.02-.6 3.63-.59 1.62-1.69 2.76t-2.64 1.75-3.42.61q-1.9 0-3.45-.61t-2.65-1.75-1.7-2.76q-.6-1.61-.6-3.63 0-1.99.6-3.61t1.7-2.74 2.65-1.73 3.45-.61m0 14.3q2.11 0 3.12-1.42 1.02-1.42 1.02-4.15 0-2.74-1.02-4.18-1.01-1.43-3.12-1.43-2.15 0-3.18 1.44t-1.03 4.17q0 2.72 1.03 4.15 1.03 1.42 3.18 1.42m30.26-.16h4.29v3.05h-13.2v-3.05h4.83v-13.91q0-.83.05-1.7l-3.43 2.87q-.3.23-.58.29-.29.06-.55.01t-.45-.18q-.2-.12-.3-.27l-1.29-1.76 7.28-6.19h3.35zm32.07-17.28h-10.59v7.06h8.94v3.55h-8.94v9.72h-4.45v-23.86h15.04zm10.48 3.14q1.88 0 3.43.61 1.54.61 2.64 1.73 1.09 1.12 1.69 2.74.59 1.62.59 3.61 0 2.02-.59 3.63-.6 1.62-1.69 2.76-1.1 1.14-2.64 1.75-1.55.61-3.43.61-1.9 0-3.45-.61t-2.64-1.75q-1.1-1.14-1.7-2.76-.61-1.61-.61-3.63 0-1.99.61-3.61.6-1.62 1.7-2.74 1.09-1.12 2.64-1.73t3.45-.61m0 14.3q2.11 0 3.13-1.42 1.01-1.42 1.01-4.15 0-2.74-1.01-4.18-1.02-1.43-3.13-1.43-2.14 0-3.17 1.44-1.04 1.44-1.04 4.17 0 2.72 1.04 4.15 1.03 1.42 3.17 1.42m17.11 3.15q-2.21 0-3.39-1.24-1.18-1.25-1.18-3.44v-9.46h-1.73q-.33 0-.56-.21-.23-.22-.23-.64v-1.62l2.72-.45.86-4.62q.08-.33.31-.51t.6-.18h2.11v5.33h4.52v2.9h-4.52v9.18q0 .79.39 1.23.38.45 1.06.45.38 0 .64-.09.25-.09.44-.19t.34-.19.3-.09q.18 0 .29.09.12.09.25.27l1.22 1.98q-.89.75-2.04 1.12-1.16.38-2.4.38m14.13-17.45q1.88 0 3.42.61t2.64 1.73 1.69 2.74q.6 1.62.6 3.61 0 2.02-.6 3.63-.59 1.62-1.69 2.76t-2.64 1.75-3.42.61q-1.9 0-3.45-.61t-2.65-1.75-1.7-2.76q-.6-1.61-.6-3.63 0-1.99.6-3.61t1.7-2.74 2.65-1.73 3.45-.61m0 14.3q2.11 0 3.12-1.42 1.02-1.42 1.02-4.15 0-2.74-1.02-4.18-1.01-1.43-3.12-1.43-2.15 0-3.18 1.44t-1.03 4.17q0 2.72 1.03 4.15 1.03 1.42 3.18 1.42m30.26-.16h4.29v3.05h-13.2v-3.05h4.83v-13.91q0-.83.05-1.7l-3.43 2.87q-.3.23-.59.29-.28.06-.54.01t-.45-.18q-.2-.12-.3-.27l-1.29-1.76 7.28-6.19h3.35z"/></svg>