<svg xmlns="http://www.w3.org/2000/svg" width="300" height="400" viewBox="0 0 300 400"><rect width="100%" height="100%" fill="#040404"/><path fill="#ffffff" d="M69.8 204.515q.26 0 .45.19l1.22 1.33q-1.01 1.25-2.49 1.92-1.48.66-3.55.66-1.85 0-3.33-.63-1.47-.63-2.52-1.76-1.05-1.12-1.61-2.69-.55-1.56-.55-3.41 0-1.88.59-3.44.6-1.56 1.69-2.68 1.09-1.13 2.59-1.76 1.51-.62 3.34-.62 1.81 0 3.22.6 1.41.59 2.4 1.56l-1.03 1.44q-.1.13-.24.24-.14.1-.4.1-.17 0-.35-.1-.19-.09-.41-.24-.21-.14-.5-.31-.29-.18-.67-.32t-.88-.24-1.15-.1q-1.12 0-2.05.4-.92.39-1.59 1.15-.66.75-1.03 1.84-.37 1.08-.37 2.48t.4 2.49q.39 1.09 1.07 1.84t1.6 1.15q.92.39 1.98.39.63 0 1.14-.07t.94-.22q.44-.15.82-.38.39-.24.77-.58.11-.1.24-.17.12-.06.26-.06m8.57-8.06q1.31 0 2.39.42 1.07.43 1.84 1.21.76.78 1.17 1.91.42 1.13.42 2.52 0 1.4-.42 2.53-.41 1.12-1.17 1.92-.77.79-1.84 1.22-1.08.42-2.39.42-1.32 0-2.4-.42-1.08-.43-1.85-1.22-.76-.8-1.18-1.92-.42-1.13-.42-2.53 0-1.39.42-2.52t1.18-1.91q.77-.78 1.85-1.21 1.08-.42 2.4-.42m0 9.97q1.47 0 2.18-.99t.71-2.9-.71-2.91-2.18-1q-1.5 0-2.21 1.01-.72 1-.72 2.9t.72 2.89q.71 1 2.21 1m16.39-9.79H97l-4.68 11.8h-2.58l-4.68-11.8h2.35q.32 0 .53.15.22.15.29.38l2.27 6.3q.19.55.32 1.08.14.53.25 1.06.11-.53.25-1.06t.33-1.08l2.33-6.3q.08-.23.28-.38.21-.15.5-.15m5.99 4.54h5.36q0-.55-.16-1.04-.15-.49-.46-.85-.31-.37-.79-.58-.48-.22-1.11-.22-1.23 0-1.94.7-.71.71-.9 1.99m7.24 1.72h-7.3q.07.91.32 1.57.26.66.67 1.09t.98.64q.57.22 1.26.22t1.19-.17q.5-.16.88-.35.37-.2.65-.36t.55-.16q.36 0 .53.27l.81 1.03q-.47.55-1.05.93-.59.37-1.23.59-.64.23-1.3.32t-1.28.09q-1.23 0-2.29-.41-1.06-.4-1.84-1.2t-1.23-1.98-.45-2.73q0-1.21.39-2.27.39-1.07 1.12-1.86.73-.78 1.79-1.24 1.05-.46 2.37-.46 1.12 0 2.06.35.94.36 1.62 1.04.68.69 1.07 1.68.38 1 .38 2.27 0 .65-.14.87-.14.23-.53.23m5.31-5.55.17 1.34q.55-1.06 1.31-1.66.76-.61 1.79-.61.82 0 1.31.36l-.18 2.13q-.06.2-.17.29t-.29.09q-.17 0-.51-.06t-.66-.06q-.47 0-.84.14t-.66.4q-.3.25-.52.62-.23.37-.42.84v7.27h-2.84v-11.8h1.67q.43 0 .61.16.17.15.23.55m23.56-5.54v1.14q0 .53-.3.97l-8.53 12.05h8.63v2.47h-12.65v-1.22q0-.23.08-.44t.21-.4l8.56-12.11h-8.31v-2.46zm2.11 4.83h2.86v11.8h-2.86zm3.25-3.44q0 .37-.15.69t-.4.57q-.25.24-.58.38t-.71.14q-.37 0-.7-.14t-.57-.38q-.24-.25-.38-.57-.15-.32-.15-.69 0-.38.15-.71.14-.33.38-.58.24-.24.57-.38t.7-.14q.38 0 .71.14t.58.38q.25.25.4.58t.15.71m4.97 3.96.19.93q.36-.36.75-.66.4-.31.84-.52.45-.21.95-.33.51-.12 1.11-.12.96 0 1.71.32.75.33 1.25.92.5.6.76 1.42t.26 1.81v7.51h-2.84v-7.51q0-1.08-.5-1.67-.49-.6-1.51-.6-.73 0-1.38.34-.64.33-1.21.91v8.53h-2.85v-11.8h1.74q.55 0 .73.52m12.75 4.02h5.36q0-.55-.16-1.04-.15-.49-.46-.85-.31-.37-.79-.58-.48-.22-1.11-.22-1.23 0-1.94.7-.71.71-.9 1.99m7.24 1.72h-7.3q.07.91.32 1.57.26.66.67 1.09t.98.64q.57.22 1.26.22t1.19-.17q.5-.16.88-.35.37-.2.65-.36t.55-.16q.36 0 .53.27l.81 1.03q-.47.55-1.05.93-.59.37-1.23.59-.64.23-1.3.32t-1.28.09q-1.23 0-2.29-.41-1.06-.4-1.84-1.2t-1.23-1.98-.45-2.73q0-1.21.39-2.27.39-1.07 1.12-1.86.74-.78 1.79-1.24t2.37-.46q1.12 0 2.06.35.94.36 1.62 1.04.68.69 1.07 1.68.38 1 .38 2.27 0 .65-.14.87-.13.23-.53.23m19.32-8.63h-7.38v4.61h5.82v2.38h-5.82v4.71h7.38v2.47h-10.48v-16.63h10.48zm10.14 3.65-.65 1.02q-.11.19-.24.26t-.32.07q-.21 0-.44-.11-.24-.12-.55-.26t-.71-.26q-.39-.11-.94-.11-.83 0-1.31.35-.48.36-.48.93 0 .38.25.64t.65.46q.41.19.93.35.52.15 1.05.34.54.18 1.05.42.52.23.93.6.41.36.65.86.25.51.25 1.22 0 .85-.3 1.57-.31.72-.91 1.24-.59.53-1.47.82t-2.03.29q-.61 0-1.19-.11-.58-.1-1.12-.3-.53-.2-.99-.46-.45-.26-.8-.57l.66-1.09q.13-.19.3-.3.17-.1.43-.1.27 0 .5.15.24.15.55.32.31.18.73.32.42.15 1.07.15.5 0 .86-.12.37-.12.6-.31.24-.2.35-.46t.11-.53q0-.42-.25-.68t-.66-.46-.93-.35q-.52-.16-1.07-.34-.54-.18-1.07-.43-.52-.25-.93-.63t-.65-.93q-.25-.55-.25-1.33 0-.73.29-1.38.28-.66.84-1.15t1.39-.78q.84-.29 1.93-.29 1.22 0 2.22.4t1.67 1.06m11.46.18-.75 1.04q-.12.16-.24.25t-.35.09q-.22 0-.43-.13t-.49-.3q-.29-.17-.69-.3t-.98-.13q-.75 0-1.31.27-.57.27-.94.78-.37.5-.56 1.22-.18.72-.18 1.63 0 .94.2 1.68.2.73.58 1.23t.92.76 1.22.26 1.1-.17q.42-.16.7-.36.29-.21.5-.37.22-.17.48-.17.35 0 .52.27l.82 1.03q-.48.55-1.03.93-.55.37-1.14.59-.59.23-1.22.32t-1.25.09q-1.09 0-2.06-.41-.96-.4-1.69-1.19-.72-.78-1.14-1.91t-.42-2.58q0-1.3.37-2.41.38-1.11 1.1-1.92.73-.81 1.79-1.27 1.07-.46 2.47-.46 1.32 0 2.31.42 1 .43 1.79 1.22m9.21-1.46h2.84v11.8h-1.73q-.57 0-.72-.52l-.19-.94q-.73.74-1.6 1.19t-2.06.45q-.96 0-1.71-.32-.74-.33-1.24-.93-.51-.6-.77-1.42t-.26-1.81v-7.5h2.84v7.5q0 1.08.5 1.67t1.5.59q.74 0 1.38-.32.65-.33 1.22-.91zm8.16.71.17 1.34q.55-1.06 1.31-1.66.76-.61 1.79-.61.82 0 1.31.36l-.18 2.13q-.06.2-.17.29t-.29.09q-.17 0-.51-.06t-.66-.06q-.47 0-.84.14t-.66.4q-.3.25-.52.62t-.42.84v7.27h-2.84v-11.8h1.67q.43 0 .61.16.17.15.23.55m11.29-.89q1.31 0 2.39.42 1.07.43 1.84 1.21.76.78 1.17 1.91.42 1.13.42 2.52 0 1.4-.42 2.53-.41 1.12-1.17 1.92-.77.79-1.84 1.22-1.08.42-2.39.42-1.32 0-2.4-.42-1.09-.43-1.85-1.22-.76-.8-1.18-1.92-.42-1.13-.42-2.53 0-1.39.42-2.52t1.18-1.91 1.85-1.21q1.08-.42 2.4-.42m0 9.97q1.47 0 2.18-.99t.71-2.9-.71-2.91-2.18-1q-1.5 0-2.21 1.01-.72 1-.72 2.9t.72 2.89q.71 1 2.21 1"/></svg>